<?xml version="1.0" encoding="utf-8"?>
<!-- Generator: Adobe Illustrator 17.0.0, SVG Export Plug-In . SVG Version: 6.00 Build 0)  -->
<!DOCTYPE svg PUBLIC "-//W3C//DTD SVG 1.1//EN" "http://www.w3.org/Graphics/SVG/1.1/DTD/svg11.dtd">
<svg version="1.1" xmlns="http://www.w3.org/2000/svg" xmlns:xlink="http://www.w3.org/1999/xlink" x="0px" y="0px" width="640px"
	 height="480px" viewBox="0 0 640 480" style="enable-background:new 0 0 640 480;" xml:space="preserve">
<style type="text/css">
	.st0{fill:none;}
	.st1{fill:url(#SVGID_1_);stroke:#000000;stroke-miterlimit:10;}
</style>
<g id="star">
	<line class="st0" x1="182.682" y1="63.136" x2="146.318" y2="121.659"/>
	<line class="st0" x1="146.318" y1="121.659" x2="109.955" y2="180.182"/>
	<line class="st0" x1="146.318" y1="134.159" x2="109.955" y2="192.682"/>
	<line class="st0" x1="146.318" y1="134.159" x2="179.273" y2="197.795"/>
	<line class="st0" x1="179.273" y1="197.795" x2="212.226" y2="261.429"/>
	<line class="st0" x1="182.682" y1="200.068" x2="182.682" y2="197.795"/>
	<line class="st0" x1="182.682" y1="197.795" x2="212.226" y2="159.727"/>
	<line class="st0" x1="212.226" y1="159.727" x2="241.771" y2="121.657"/>
	<path class="st0" d="M214.5,181.886c-9.742-4.485-19.147-10.059-28.323-15.411c-6.482-3.781-18.701-9.919-19.972-18.112"/>
	<linearGradient id="SVGID_1_" gradientUnits="userSpaceOnUse" x1="117.0168" y1="200.0682" x2="326.1051" y2="200.0682">
		<stop  offset="0.1685" style="stop-color:#FBB040"/>
		<stop  offset="0.6089" style="stop-color:#F9ED32"/>
	</linearGradient>
	<path class="st1" d="M213.403,77.492c-6.005,6.502-8.403,17.961-9.822,27.773c-2.218,15.332-3.508,49.715-15.814,55.744
		c-10.172,4.984-29.774,0.589-40.612,1.157c-11.571,0.606-19.305,0.952-30.138,5.735c6.363,6.58,16.938,8.531,24.708,13.303
		c7.531,4.625,15.939,11.498,22.627,17.616c9.126,8.348,17.825,23.593,14.752,35.521c-4.392,17.05-21.304,19.082-30.248,30.941
		c-8.107,10.75-9.27,27.66-17.116,38.304c18.407-0.44,26.999-3.518,43.391-12.574c14.364-7.935,26.776-21.729,39.908-29.287
		c2.501,17.88,17.002,27.052,28.229,36.211c11.229,9.16,26.646,25.432,40.394,24.683c-4.625-14.447-13.158-26.346-14.831-42.467
		c-1.742-16.787,5.98-57.046-14.58-55.92c13.096-8.414,25.766-19.257,38.949-27.688c9.424-6.027,28.539-10.284,32.904-23.076
		c-15.232-0.57-30.406-5.741-45.567-7.962c-10.273-1.505-32.773-2.984-38.041-12.309c-1.666-2.948-2.942-11.924-4.528-15.999
		c-2.824-7.257-5.374-13.242-8.609-19.851c-6.454-13.183-14.213-25.969-16.867-38.742"/>
</g>

<a xlink:href="http://i6.cims.nyu.edu/~xw525/bigbang.html">
<g id="picture">
	<g>
		<g>
			<path d="M203.246,336.677c2.378,0.62,4.43-0.634,6.563-1.611c0.275,1.893-0.989,2.656-1.465,3.776
				c-0.545,1.281-0.156,2.134,0.873,2.977c1.075,0.881,1.957,0.631,2.742-0.241c6.866-7.628,14.887-14.118,21.35-22.174
				c4.227-5.269,3.618-10.768,2.255-16.556c-1.122-4.763-2.498-9.376-4.824-13.8c-1.391-2.647-1.592-6.113-1.657-9.225
				c-0.129-6.168-3.108-10.575-7.718-14.176c-1.1-0.859-2.273-1.66-3.509-2.301c-3.696-1.917-7.147-3.927-5.118-9.533
				c-2.172,0.778-2.562,2.454-3.877,3.151c-2.022,1.072-2.451-1.446-4.451-1.44c1.829,4.262,0.482,8.409,0.337,12.724
				c-2.025-0.499-1.339-2.138-1.769-2.997c-5.061,0.951-7.959,8.947-15.202,4.268c8.567-0.326,14.576-10.432,13.448-18.155
				c-0.383-2.618-0.769-5.337,1.613-7.651c0.897,1.669-0.695,3.085-0.272,4.614c0.276,0.996,0.11,2.156,1.306,2.651
				c1.462,0.606,1.707-0.813,2.348-1.51c0.388-0.421,0.684-0.954,0.923-1.481c0.926-2.038,2.048-4.549,0.36-6.178
				c-1.411-1.362-3.989-0.992-5.835,0.287c-1.733,1.2-3.342,0.275-3.944-0.859c-1.743-3.281-5.968-2.474-7.876-5.239
				c-0.303-0.439-0.611-0.27-0.723,0.062c-0.779,2.294-2.445,1.901-4.179,1.46c-3.311-0.841-5.865,1.513-8.823,2.187
				c-1.243,0.283-1.11,4.619,0.128,5.44c0.542,0.359,1.438,0.212,1.562,1.144c-3.031,1.362-3.031,1.362-4.382-1.598
				c-0.048-0.105-0.133-0.193-0.187-0.296c-2.92-5.641-2.896-5.619-7.167-1.023c-1.353,1.456-2.859,2.758-4.981,3.026
				c-2.699,0.342-4.56,1.65-4.836,4.547c-0.13,1.357-1.077,2.044-2.104,1.825c-2.377-0.507-2.965,1.047-3.774,2.637
				c-3.33,6.544-6.743,13.046-10.058,19.598c-0.769,1.52-1.811,2.823-2.758,4.356c6.123-3.65,12.52-6.601,18.905-9.591
				c0.125,0.216,0.375,0.507,0.323,0.578c-2.119,2.886-3.016,6.056-2.872,9.676c0.049,1.217-1.658,1.848-2.663,2.616
				c-2.504,1.912-4.962,3.91-7.617,5.593c-7.149,4.532-10.256,3.74-14.802-3.509c0-0.935,0-1.87,0-2.805
				c2.705,0.97,3.799-0.311,5.763-2.407c7.234-7.721,9.763-17.695,14.169-26.762c0.702-1.444,1.751-2.9-0.006-4.39
				c-0.651-0.553-1.729-1.042-0.876-2.236c0.633-0.886,1.353-1.596,2.559-1.566c1.668,0.042,3.902,1.141,4.882-0.076
				c1.782-2.211,3.424-4.61,4.563-7.371c1.786-4.332,3.266-8.756,4.747-13.232c0.3,2.872-1.309,5.419-0.937,8.366
				c1.546-3.053,3.857-5.482,5.833-8.159c0.757-1.025,0.871-2.238,2.696-2.035c1.506,0.167,0.96-1.587,0.79-2.071
				c-0.501-1.425,0.002-1.957,1.259-2.152c0.918-0.142,2.338-1.409,2.209,1.031c-0.044,0.84,0.92,0.457,1.384,0.306
				c1.659-0.54,3.291-1.162,4.928-1.768c0.317-0.117,0.739-0.223,0.891-0.47c1.57-2.545,1.524-2.502,4.293-0.658
				c1.852,1.233,3.4,3.207,6.087,0.586c1.294-1.262,4.145-2.09,6.318-0.007c-0.874,1.025-1.865,0.54-2.72,0.673
				c-0.652,0.101-1.143,0.308-1.04,1.07c0.08,0.589,0.313,1.316,0.951,1.288c5.287-0.234,7.369,3.739,9.806,7.305
				c1.044,1.528,2.254,2.941,3.348,4.436c1.572,2.149,3.011,4.085,1.499,7.184c-0.941,1.929-1.875,4.327-1.146,6.751
				c0.207,0.687,0.573,1.435,1.308,1.506c0.859,0.082,1.048-0.823,1.173-1.437c0.963-4.735,4.759-6.789,8.517-8.592
				c5.134-2.464,10.499-4.44,15.716-6.737c1.954-0.86,2.54,0.598,3.273,1.676c5.357,7.883,7.393,7.74,12.156-0.783
				c1.075-1.924,2.491-3.656,3.721-5.497c0.982-1.469,0.552-3.11,0.756-4.374c-5.352,0.234-10.422,1.63-15.563,0.226
				c-1.594-0.435-4.776,1.154-3.924-2.788c-5.596-0.556-4.135-5.794-5.174-8.828c-1.177-3.439-0.83-7.604,0.349-11.392
				c0.57-1.832,1.193-4.17,2.998-4.451c4.872-0.757,9.049-4.71,14.092-3.682c5.269,1.075,9.402,4.437,12.859,8.597
				c2.896,3.486,4.145,7.087,2.261,11.563c-0.89,2.114-1.012,4.542-1.603,6.795c-0.522,1.993-1.02,3.847-2.883,5.363
				c-2.656,2.162-2.043,6.176,0.821,8.183c0.764,0.535,1.513,1.341,2.357,1.475c7.309,1.164,9.691,7.37,13.366,12.819
				c-2.558-0.169-4.608-2.043-7.723-1.166c3.828,2.179,7.01,3.991,10.191,5.802c-2.133,3.485-5.98,5.344-7.207,9.439
				c-0.677,2.261-0.867,4.371-0.187,6.488c1.526,4.749,2.747,9.706,5.102,14.029c1.116,2.048,2.934,3.998,4.309,6.125
				c1.191,1.843,1.681-0.631,3.23-1.132c-3.388,6.323-0.698,10.752,4.146,14.453c-1.092,0.791-2.686-0.835-2.694,0.957
				c-0.017,3.991-2.301,7.286-3.111,11.023c-1.292,5.959-1.329,5.951,4.56,7.502c-0.96,2.142-0.422,4.811-2.504,6.592
				c-1.257,1.076,0.535,1.103,0.812,1.667c0.696,1.416,0.872,0.199,1.207-0.281c0.421-0.604,1.018-0.912,2.175-0.971
				c-2.369,1.919-1.67,4.103-1.027,6.212c0.262,0.859,0.999,1.541,0.667,2.592c-2.104,6.662,1.568,12.515,2.755,18.7
				c0.677,3.527,2.202,6.884,3.107,10.379c0.478,1.845,1.422,2.099,3.042,1.833c2.293-0.375,2.547-0.545,2.68-2.416
				c0.019-0.263,0.265-0.643,0.5-0.738c2.768-1.126,2.471-3.38,2.003-5.596c-0.647-3.064-0.632-6.279-2.979-8.898
				c-1.57-1.751-1.784-4.427-1.818-6.608c-0.039-2.494-0.578-4.661-1.529-6.841c-1.012-2.322-0.167-3.154,2.243-3.025
				c4.096,0.219,7.924,4.104,9.06,9.328c0.272,1.25,0.386,2.583,0.916,3.716c0.672,1.435,2.334,2.079,3.496,1.284
				c1.056-0.723,0.338-2.06-0.679-2.926c-0.987-0.84-1.72-1.89-2.147-4.139c2.579,1.896,5.121,2.925,6.095,5.397
				c0.735,1.866,1.929,1.992,3.256,1.671c1.775-0.43,0.652-1.652,0.279-2.484c-0.558-1.243,0.446-1.717,1.041-2.325
				c1.876-1.915,2.9-4.205,3.185-6.834c0.074-0.681,0.218-1.719-0.146-2.023c-2.647-2.213-2.425-3.941,0.57-5.562
				c0.692-0.375,0.593-1.351,0.168-1.902c-1.079-1.401,0.129-2.234,0.773-3.145c-0.882-0.871-1.899-0.748-2.768-0.671
				c-1.668,0.147-1.96-0.706-1.991-2.072c-0.034-1.475,0.515-2.364,2.042-1.972c3.658,0.939,4.812-0.851,4.848-4.128
				c0.01-0.92,0.511-1.869,0.391-2.751c-0.66-4.841,0.646-8.512,5.625-10.233c0.24-0.083,0.349-0.546,0.64-1.034
				c-0.991-0.112-2.081-0.595-2.636-0.241c-4.768,3.051-2.923-1.548-2.622-2.589c0.983-3.4,1.137-6.813,1.296-10.299
				c0.084,0.751,0.237,1.503,0.237,2.254c0,1.337,1.187,0.226,1.778,0.899c0.665,0.759,0.506-0.57,0.527-0.848
				c0.141-1.889,2.007-1.625,3.188-2.929c0.521,1.973-0.106,3.843,0.963,5.272c0.671,0.898,1.029,3.043,2.513,1.876
				c1.425-1.121,4.319-2.505,2.739-4.861c-1.418-2.115-1.4-3.794-1.057-6.098c0.615-4.125-1.54-7.933-2.13-11.949
				c-0.065-0.44-0.222-1.055-0.807-0.89c-0.598,0.169-1.63,0.822-1.597,0.9c0.574,1.386-0.431,2.896,0.47,4.277
				c0.854,1.308-2.611,7.557-4.157,7.684c-0.669,0.055-1.243-0.139-1.017-0.928c0.645-2.257-0.724-5.079,1.962-6.716
				c0.038,0.059,0.139,0.197,0.223,0.345c0.701,1.241-1.928,3.188,0.006,3.481c1.606,0.243,0.562-2.229,0.847-3.458
				c0.288-1.243,0.472-2.528,0.522-3.802c0.033-0.842,0.732-1.963-0.357-2.511c-0.88-0.443-1.174,0.982-2.084,1.029
				c-0.693-2.997,1.154-5.371,1.917-8.004c0.203-0.7,1.078-1.484,0.235-2.179c-0.687-0.566-1.534-0.087-2.33,0.104
				c-2.446,0.587-2.958,2.358-2.902,4.514c0.16,6.177,0.362,12.353-0.368,18.531c-0.174-6.836-0.707-13.648-1.078-20.466
				c-0.212-3.894,1.154-4.847,4.96-5.142c2.925-0.227,5.659-1.054,8.09-3.193c-6.468-2.513-13.243-2.097-19.783-3.266
				c1.573-0.913,3.232-0.669,4.857-0.515c5.109,0.482,10.132,1.794,15.311,1.601c1.179-0.044,2.178,0.467,2.644,1.413
				c1.143,2.323,2.532,1.832,4.117,0.613c3.144-2.418,6.394-4.712,9.41-7.281c2.804-2.388,3.413-6.687,1.61-9.159l-0.071,0.103
				c4.248,0.132,7.151-1.935,8.431-5.82c0.362-1.1,0.121-2.034-0.715-2.411c-1.511-0.682-3.208-0.651-4.616,0.334
				c-0.701,0.491-1.111,1.398-1.69,2.167c-2.078-4.082-5.973-4.847-8.832-1.761c-1.67,1.802-3.66,2.011-5.763,1.363
				c-2.15-0.662-3.613-2.128-3.791-4.52c-0.078-1.037-0.013-2.085-0.013-3.182c-1.734-0.029-1.902,1.418-2.612,2.202
				c-2.255,2.487-5.646,2.228-7.273-0.632c-1.118-1.965-0.538-7.3,0.815-9.105c0.655-0.873,1.602-0.966,2.12-0.572
				c2.357,1.793,2.665,0.105,3.201-1.62c2.475-7.962,8.338-12.113,16.126-13.763c1.837-0.389,2.467-1.397,3.224-2.724
				c2.328-4.082,5.157-3.898,8.137-0.407c5.307,6.217,7.923,13.837,11.748,20.82c2.087,3.81,1.813,7.613-0.506,11.281
				c-1.496,2.367-2.741,4.849-3.533,7.879c2.875-1.361,4.649-3.611,6.812-5.365c1.016-0.824,0.926-1.589,0.608-2.733
				c-1.231-4.429-1.292-8.959-0.903-13.519c0.123-1.442,0.654-2.687,1.228-3.971c1.562-3.496,5.107-4.498,7.81-6.603
				c3.036-2.365,6.059-2.006,9.445-2.513c6.781-1.014,11.168,2.567,15.356,6.043c4.549,3.776,7.653,9.097,7.539,15.459
				c-0.068,3.772,2.086,6.049,4.745,7.978c3.166,2.295,3.913,6.086,1.266,8.89c-0.89,0.942-1.621,1.29-0.042,2.15
				c8.149,4.439,7.21,12.045,6.421,19.374c-0.581,5.392-2.597,10.579-0.647,16.197c0.847,2.439-0.925,4.979-2.512,7.034
				c-2.242,2.903-3.385,6.063-3.113,9.76c0.228,3.104-0.999,5.935-2.234,8.641c-2.517,5.514-5.458,10.799-5.832,17.103
				c-0.115,1.93-1.37,3.952-2.54,5.628c-2.597,3.718-2.698,8.026-3.397,12.215c-1.174,7.026-3.256,13.771-5.489,20.547
				c-1.771,5.375-5.177,10.454-4.385,16.583c0.276,2.137-1.738,3.869-1.15,6.321c0.329,1.371-1.598,1.291-2.73,1.297
				c-4.557,0.023-9.116-0.078-13.669,0.048c-2.113,0.059-2.6-0.611-2.185-2.641c2.076-10.163,2-20.517,2.541-30.813
				c0.115-2.2-0.127-4.419-0.228-6.628c-0.036-0.795,0.074-1.739-1.111-1.824c-1.068-0.076-1.324,0.76-1.605,1.537
				c-1.75,4.838-3.232,9.752-4.059,14.841c-0.963,5.926-2.115,11.789-4.466,17.372c-0.601,1.428-0.929,3.146-0.787,4.676
				c0.301,3.255-1.369,3.518-3.98,3.485c-12.029-0.151-24.061-0.081-36.089-0.256c-1.903-0.028-4.373,1.287-5.697-1.272
				c-1.724-3.332-4.437-6.438-2.105-10.688c1.873-3.414-0.66-6.755,0.156-10.985c-1.71,1.701-1.718,2.893-1.525,3.993
				c0.415,2.36-0.302,4.108-1.76,6.07c-1.681,2.261-2.303,5.179-1.179,8.075c1.039,2.678-0.314,4.938-3.099,4.957
				c-6.423,0.044-12.852-0.113-19.268,0.121c-2.908,0.106-2.992-1.745-3.055-3.539c-0.077-2.17-1.092-3.136-2.748-4.574
				c-3.712-3.223-6.096-7.897-6.113-12.788c-0.021-5.904-1.55-11.443-2.451-17.138c-1.336-8.439-2.663-16.88-3.623-25.578
				c-0.617,2.636-3.312,2.41-4.822,3.938c-3.023,3.06-3.172,6.43-2.665,10.147c1.408,10.317-1.73,20.013-4.177,29.764
				c-1.414,5.639-2.865,11.259-3.604,17.019c-0.265,2.07-0.963,2.78-3.04,2.723c-4.67-0.128-9.362-0.276-14.014,0.041
				c-3.506,0.239-4.401-1.565-4.075-4.312c0.525-4.426,0.332-8.856,0.445-13.281c0.147-5.777,0.036-11.562,0.036-18.274
				c-1.663,5.047-3.024,9.216-4.411,13.377c-0.958,2.874-1.919,5.71-3.753,8.232c-1.773,2.436-1.355,7.412,0.473,9.949
				c0.825,1.145,1.847,2.522,1.199,3.793c-0.517,1.014-2.133,0.401-3.249,0.412c-4.907,0.05-9.814,0.021-14.721,0.018
				c-5.107-0.002-6.733-1.532-6.986-6.787c-0.27-5.624,0.507-11.185,1.194-16.746c0.626-5.067,1.296-10.128,1.976-15.412
				c-2.886,0.783-3.067,3.046-3.501,4.984c-0.347,1.548-0.518,2.517-2.623,2.214c-1.877-0.27-3.898,0.146-5.809,0.504
				c-2.415,0.453-2.076,2.616-2.06,4.239c0.048,4.787,0.353,9.57,0.494,14.357c0.1,3.381-0.104,6.784,0.205,10.142
				c0.224,2.434-0.855,2.583-2.753,2.544c-4.788-0.098-9.583-0.131-14.369,0.01c-2.237,0.066-3.314-0.589-3.856-2.9
				c-2.022-8.619-3.542-17.372-6.59-25.73c-0.509-1.395-0.694-2.94-1.842-4.011c-1.294,0.165-1.104,1.171-1.087,1.886
				c0.211,9.343-1.697,18.624-0.815,27.982c0.178,1.893-0.464,2.745-2.53,2.716c-6.074-0.084-12.155-0.136-18.223,0.082
				c-2.511,0.09-2.582-1.563-2.811-3.053c-0.796-5.185-1.43-10.395-2.147-15.592c-0.253-1.835-0.458-3.664-1.77-5.184
				c-1.897-2.197-1.057-5.142-0.727-7.295c0.722-4.702-0.637-9.146-0.517-13.725c0.138-5.248,0.535-10.359,3.026-15.221
				c1.602,1.475,3.063,2.796,4.496,4.146c1.752,1.651,3.681,2.626,6.217,2.724c4.145,0.161,7.813,2.161,11.631,3.569
				c4.774,1.76,9.867,2.725,14.748,1.579c5.389-1.266,10.561-3.574,15.149-6.874c0.64-0.46,1.705-1.3,1.595-1.682
				c-1.01-3.514,1.703-3.396,3.717-4.27c2.693-1.169,4.914-2.984,6.468-5.643c1.043-1.784,2.444-3.417,3.921-4.879
				c2.747-2.721,5.269-5.564,6.779-9.626c1.633,2.819,3.084,5.298,4.507,7.794c0.499,0.875,0.531,1.906,0.053,2.704
				c-4.082,6.817-7.102,14.371-13.5,19.778c-2.691-2.353-1.557-5.915-3.113-8.752c-1.826,1.725-5.6,0.702-6.311,3.428
				c-0.882,3.383-4.788,6.817-0.816,10.627c-6.048,1.09-12.052-0.706-18.115-0.409c2.513,0.937,5.069,1.442,7.606,2.027
				c0.833,0.192,2.118,0.136,1.952,1.465c-0.123,0.986-1.163,0.964-1.978,1.024c-0.464,0.034-0.931,0.039-1.393,0.09
				c-0.585,0.065-1.264,0.183-1.183,0.935c0.077,0.717,0.76,0.705,1.353,0.766c1.068,0.109,2.308-0.448,3.157,0.694
				c-0.659,1.587-2.614,0.528-3.496,1.738c1.311,1.336,2.701,0.159,3.991,0.337c2.333,0.322,1.161,2.234,1.42,3.604
				c1.419-0.611,2.623-1.615,3.724-1.512c3.365,0.313,3.12-1.323,2.262-3.507c-0.662-1.685,0.08-1.981,1.612-1.891
				c0.701,0.041,2.147,1.05,1.948-1.149c-0.115-1.278,0.235-2.318-1.588-2.218C203.059,338.843,202.928,337.879,203.246,336.677z
				 M385.296,270.327c-0.549,1.274-0.598,2.427,1.206,3.614c0.482-3.05,3.47-4.759,2.681-8.332c-0.49-2.222-1.933-2.483-3.327-2.419
				c-2.125,0.098-0.874,1.546-0.603,2.532c0.309,1.12-0.56,2.298,0.158,3.402c-1.411-1.38-2.032-3.273-3.23-5.238
				c-0.335,2.201-0.064,3.982,0.625,5.636C383.218,270.51,383.9,271.839,385.296,270.327z M259.798,264.605
				c0.724,0.027,1.104-0.307,0.83-1.013c-1.017-2.623-2.992-3.068-6.093-1.412c-5.999-0.541-8.201,1.87-7.642,8.367
				c3.397-0.989,3.902-2.093,2.701-5.676c0.887,1.085,5.71-0.322,1.957,3.763c-2.012,2.19,1.141,3.705,1.924,5.441
				c0.682,1.511,1.914-0.328,2.888-0.648c0.966-0.318,2.539-1.147,2.41,0.299c-0.173,1.931,1.166,3.109,1.324,4.802
				c0.249,2.667,3.247,3.077,4.49,2.662c2.541-0.847-0.553-1.413-0.62-2.286c-0.026-0.34-0.102-0.855,0.08-1.006
				c2.445-2.02-0.274-2.741-0.896-4.064c-0.572-1.217-0.92-2.307-2.584-1.798c-1.688,0.516-1.491-0.862-1.23-1.561
				c0.572-1.53,0.63-2.841-0.331-4.242C258.499,265.495,259.141,264.963,259.798,264.605z M335.913,364.09
				c1.494,0.192,3.055,2.044,3.749-0.199c1.321-4.271,3.678-7.963,5.835-11.802c3.299-5.871,4.992-12.544,9.15-18.028
				c1.74-2.295,2.753-5.111,4.844-7.231c1.004-1.018,1.494-2.408,1.178-3.888c-0.359-1.68,0.217-3.176,0.556-4.78
				c0.968-4.581,3.583-8.58,4.284-13.295c0.323-2.171,0.173-2.612-1.912-2.576c-4.223,0.072-8.404-0.544-12.411-1.81
				c-2.549-0.806-3.683-0.428-3.6,2.402c0.03,1.032-0.365,2.071-0.393,3.111c-0.214,7.849-0.793,15.613-4.528,22.767
				c-1.165,2.233-1.239,4.71-1.35,7.169c-0.384,8.517-2.158,16.644-6.635,24.048c-0.509,0.842-0.621,2.003-0.661,3.026
				c-0.037,0.969-0.142,1.73-0.843,2.526c-1.81,2.053-1.163,4.819,1.362,5.61c1.76,0.551,4.018,1.03,5.31-0.365
				c1.437-1.552-1.612-1.83-1.665-3.248C338.127,366.087,336.367,365.776,335.913,364.09z M386.141,232.158
				c0.195,5.053,3.704,10.893,8.072,13.102c3.202,1.62,6.643,2.125,9.52-0.433c4.978-4.427,8.613-9.623,8.259-16.795
				c-0.177-3.593-2.195-5.631-5.574-4.84c-4.378,1.024-8.929,1.529-12.934,3.821c-0.624,0.357-1.193,0.625-1.96,0.484
				C386.959,226.657,385.963,227.533,386.141,232.158z M430.344,248.194c-2.121,2.298-2.592,5.213-3.184,7.966
				c-1.499,6.97-3.919,13.401-9.162,18.474c-0.878,0.85-1.236,1.93-1.552,3.071c-2.182,7.867-2.657,16.01-3.925,24.025
				c-0.195,1.231,0.059,2.374,1.339,2.933c1.198,0.522,1.873-0.369,2.715-1.028c5.021-3.931,7.671-8.736,6.881-15.398
				c-0.345-2.908-0.296-6.488,2.451-8.377c3.809-2.619,4.206-6.425,4.744-10.327c0.072-0.522,0-1.336-0.33-1.583
				c-0.687-0.517-1.276,0.181-1.795,0.612c-0.446,0.371-0.811,0.837-1.238,1.234c-0.505,0.471-1.078,1.172-1.789,0.715
				c-0.87-0.56-0.496-1.505-0.114-2.193c1.073-1.935,2.204-3.841,3.388-5.711C431.635,258.088,431.596,253.249,430.344,248.194z
				 M349.133,206.611c-4.549-0.516-5.886,2.212-7.658,4.267c-1.637,1.898-1.161,3.544,0.063,5.61
				c1.195,2.017,2.477,2.103,4.545,2.095c3.796-0.015,8.178-1.407,10.514,3.617c0.591,1.272,3.095,2.139,4.32,1.489
				c1.546-0.82-0.135-2.424-0.539-3.622c-0.59-1.748-1.017-3.243,0.715-4.712c1.092-0.926,1.798-2.57,0.455-3.672
				c-1.606-1.319-2.827-2.979-4.523-4.257C354.022,205.163,351.065,206.32,349.133,206.611z M404.012,328.593
				c2.118,0.975,3.945,0.119,5.774,0.175c1.262,0.038,1.837-1.554,1.377-1.691c-2.459-0.732-0.632-1.703-0.268-2.473
				c0.692-1.466,1.841-2.727,2.069-4.399c0.104-0.762,0.316-2.249-0.488-2.081c-2.651,0.554-5.191-1.566-7.707-0.258
				c-1.93,1.004-3.897,1.428-6.029,1.469c-0.886,0.017-1.95,0.038-2.043,1.369C404.263,322.444,405.621,323.903,404.012,328.593z
				 M252.709,326.269c2.24,0.948,3.528-0.207,4.65-1.012c1.873-1.344,3.182-2.555,5.073,0.212c1.343,1.966,4.328,1.077,5.531,0.207
				c1.343-0.971-0.232-2.848-1.518-3.965c-0.966-0.838-1.852-1.768-2.807-2.619c-0.58-0.517-1.206-1.359-2.069-0.619
				C258.65,320.977,255.79,323.548,252.709,326.269z M243.778,264.647c-0.208-1.104,0.148-2.784-1.464-2.237
				c-2.398,0.813-4.751,2.095-5.425,4.873c-0.748,3.082,1.334,4.517,3.605,5.953c2.21,1.397,1.646-2.094,3.407-1.677
				c0.944,0.224,0.781-1.157,0.486-1.536C243.02,268.265,243.157,266.415,243.778,264.647z M398.626,268.457
				c-0.506-1.277,0.986-2.265-0.321-3.087c-0.683,1.87-1.738-0.984-2.167,0.082c-1.475,3.668-3.265,7.36-1.375,11.664
				c5.62-7.092,5.62-7.092,5.815-10.459C399.946,267.241,399.378,267.764,398.626,268.457z M242.176,287.715
				c3.367,2.796,7.025,1.752,10.471,1.277c0.834-0.115,3.193-1.039,2.426-2.743c-0.787-1.748-2.03,0.228-3.069,0.281
				c-1.073,0.054-1.634,0.232-2.11,1.234c-0.254,0.534-1.319,1.09-1.756,0.432C246.283,285.399,244.31,287.549,242.176,287.715z
				 M263.959,252.995c2.294,0.087,4.528-0.644,5.014-3.285c0.124-0.673-2.351-1.172-3.095-2.457
				C263.891,248.569,262.498,250.138,263.959,252.995z M234.082,251.971c1.032-2.78,1.159-5.593-1.37-5.934
				c-2.912-0.393-2.8,2.582-2.707,5.127C231.472,250.266,232.842,250.316,234.082,251.971z M250.915,275.271
				c-4.274,0.646-4.625,4.752-6.587,7.464C249.287,282.961,249.644,278.809,250.915,275.271z M323.38,342.405
				c-2.15,2.953-1.805,5.709-0.238,8.503C323.655,348.179,324.209,345.45,323.38,342.405z M392.74,292.176
				c0.197,1.673,1.579,2.888,1.686,4.682c0.51-1.869,2.169-2.7,3.518-4.153C395.961,292.503,394.385,292.343,392.74,292.176z
				 M250.126,238.198c2.478,0.261,3.927-0.427,5.362-1.104c0.489-0.231,1.25-0.616,1.27-0.965c0.049-0.864-1.519-0.354-1.583-1.641
				c-0.029-0.579-0.881,0.126-1.269,0.452C252.786,235.882,251.686,236.849,250.126,238.198z M257.194,281.866
				c-0.18-1.603,1.42-3.769-0.622-4.708c-1.626-0.747-3.76-0.364-5.419,1.594C256.44,277.32,255.907,277.71,257.194,281.866z
				 M231.164,275.984c1.357,1.181,2.903,1.247,4.116,0.455c0.447-0.292,0.596-2.396-0.367-2.817
				C232.813,272.706,232.555,275.265,231.164,275.984z M385.591,290.765c1.431-1.252,1.868-2.875,1.424-4.384
				c-0.27-0.917-1.592-0.091-2.048,0.243C382.887,288.148,385.51,289.274,385.591,290.765z"/>
			<path d="M128.838,258.081c2.919-3.055,5.837-6.11,8.756-9.165c0.217,0.184,0.433,0.367,0.65,0.551
				c-2.968,4.39-5.819,8.861-9.406,12.821C128.838,260.886,128.838,259.483,128.838,258.081z"/>
			<path d="M281.376,233.633c-2.653-0.684-3.384-3.814-3.328-5.105c0.251-5.784-0.223-11.876,4.181-16.801
				c3.619-4.046,12.784-6.071,17.957-4.864c6.985,1.63,7.781,7.937,11.01,12.437c-2.93,2.721,1.072,5.006,0.758,7.563
				c-0.491,0.046-0.82,0.164-0.899,0.071c-3.19-3.782-6.854-6.357-12.202-5.469c-0.826,0.137-1.805-0.898-2.764-1.254
				c-1.236-0.459-2.566-1.367-3.138,0.991c-0.254,1.048-1.714,1.004-2.735,1.162c-5.456,0.84-7.068,3.271-5.834,8.772
				c0.17,0.757,0.668,1.52,0.137,2.381c-1.675-0.287-1.294-3.419-3.312-2.69c-0.934,0.337-0.413,1.871,0.167,2.811L281.376,233.633z
				"/>
			<path d="M290.546,301.233c5.76-0.703,5.501-0.765,6.739-5.995c1.42-5.999,0.288-11.778-0.416-17.699
				c0.936,2.682,1.872,5.363,2.831,8.113c0.475-2.969,3.564-4.235,5.075-4.132c4.332,0.293,5.905-2.906,8.373-5.046
				c0.328-0.284,0.4-0.843,0.682-1.202c1.175-1.491,2.56-2.986,4.525-2.881c1.153,0.062,1.122,1.544,0.945,2.625
				c-0.397,2.425-1.778,4.445-4.165,4.388c-2.469-0.059-2.934,0.114-1.973,2.529c0.702,1.765-1.905,4.474-3.827,4.33
				c-0.216-0.016-0.476-0.078-0.629-0.215c-2.082-1.868-2.141-1.96-4.318-0.4c-1.892,1.356-5.691,1.147-4.931,4.804
				c0.495,2.383-1.108,4.655,0.275,7.09c0.605,1.064,0.138,2.755-1.621,3.688C293.241,303.814,293.297,303.919,290.546,301.233z"/>
			<path d="M173.62,286.261c2.284-0.709,1.941-3.266,3.627-5.121c0,3.971,0,7.481,0,11.283c1.817-0.194,3.433-1.158,5.238-0.409
				c-0.969,1.346-3.108,0.268-3.791,1.787c-0.668,1.486,0.685,3.087,0.303,4.353c-0.484,1.607-1.631,3.294-2.977,4.288
				c-1.518,1.121-2.05-0.731-2.622-1.783c-0.693-1.274-0.693-0.769-1.25,0.179c-0.587,0.999-1.035-0.093-1.254-0.633
				c-0.698-1.723-1.101-4.181-0.127-5.151c1.955-1.947-0.299-4.293,1.309-6.149c0.533-0.616-1.348-0.821-2.109-1.68
				c1.411-0.395,2.576-0.721,3.74-1.046L173.62,286.261z"/>
			<path d="M198.336,297.448c-1.523,0.073-1.415,0.835-1.646,1.298c-0.744,1.488-1.731,0.444-2.214,0.001
				c-0.742-0.68,0.132-1.076,0.674-1.507c1.526-1.213,3.885-0.857,5.234-2.682c-0.08,3.729-1.704,7.166-4.598,8.875
				c-2.095,1.237-2.369,2.337-2.653,4.247c-0.187,1.259,0.443,2.831-1.366,4.084c0.651-5.388-3.725-9.037-3.918-14.023
				c-0.075-1.939-0.875-3.051-3.212-1.596c0.964-0.866,0.801-2.099,2.171-2.552c1.081-0.357,1.518-1.325,2.046,0.572
				c1.143,4.102,2.622-0.832,4.161,0.241c-1.967,2.192-3.638,4.455-1.395,7.66c0.712,1.017,1.597,1.291,2.143,1.114
				C196.352,302.341,197.048,299.905,198.336,297.448z"/>
			<path d="M184.81,321.166c-2.848-1.315-5.194-2.336-5.668-5.36c-0.15-0.956-0.474-1.799-1.093-2.515
				c-1.42-1.64-0.764-2.732,0.921-3.527c1.369-0.647,1.482-1.97,0.292-2.244c-1.7-0.392-2.455-1.505-1.53-2.336
				c0.803-0.722,3.087-1.23,4.078-0.015c2.714,3.33,4.458,7.19,4.879,11.551c0.067,0.69-0.178,1.197-0.874,1.217
				c-1.009,0.029-1.607-0.717-1.456-1.569c0.333-1.876-0.83-3.26-1.238-4.902C179.954,313.349,179.998,313.634,184.81,321.166z"/>
			<path d="M306.162,320.531c0.269-3.323,2.377-4.293,5.344-4.225c1.741,0.04,3.49,0.097,5.224-0.023
				c2.291-0.158,2.777,1.061,2.637,2.998c-0.148,2.034-1.035,2.54-2.989,1.906c-1.687-0.547-3.408-0.015-5.134,0.348
				c-1.723,0.363-3.727,1.05-4.997-1.083L306.162,320.531z"/>
			<path d="M193.449,251.626c-0.054,2.618-1.189,3.939-3.62,3.964c-2.642,0.027-5.574-2.428-5.557-4.782
				c0.021-2.91,2.193-3.235,4.378-3.227C191.446,247.591,193.315,248.8,193.449,251.626z"/>
			<path d="M180.472,254.486c-0.154,1.639-1.041,2.828-3.038,2.857c-2.389,0.035-5.779-3.042-5.777-5.29
				c0.002-2.276,1.732-2.502,3.412-2.573C177.988,249.356,180.413,251.545,180.472,254.486z"/>
			<path d="M359.763,235.989c-3.496,4.964-8.288,7.628-14.301,8.392c-1.122,0.143-2.392,0.418-3.488,1.329
				c-1.491,1.24-3.596-0.106-5.278-3.083c7.539,2.313,15.705-0.221,20.93-6.573c0.841-1.022,1.409-1.663,2.057,0.049
				C359.692,236.092,359.763,235.989,359.763,235.989z"/>
			<path d="M292.501,259.852c-0.157,1.626-0.905,3.368,1.54,4.215c0.372,0.129,1.216,2.032,0.556,3.187
				c-0.553,0.969-1.71,1.142-2.721,1.374c-0.587,0.135-1.578-0.3-1.459-0.589c1.04-2.526-0.834-5.097,0.214-7.521
				c0.173-0.401,1.255-0.408,1.917-0.597L292.501,259.852z"/>
			<path d="M145.715,245.974c-1.443-1.039-3.712-1.078-3.399-2.933c0.307-1.814,1.944-3.366,3.846-3.571
				c1.283-0.138,2.151,1.509,2.148,2.69C148.305,243.874,146.649,244.696,145.715,245.974z"/>
			<path d="M190.435,263.999c-0.472,2.057-1.851,2.465-3.672,2.406c-1.13-0.037-2.323-2.683-3.476,0.053
				c-0.139,0.33-0.293-0.351-0.44-0.559c-0.651-0.926-0.352-2.185,0.304-2.475c1.954-0.864,4.133-1.057,6.274-0.997
				C190.312,262.451,190.216,263.422,190.435,263.999z"/>
			<path d="M292.548,259.921c-0.733-4.575,1.712-8.47,2.617-13.227c0.898,5.399,3.805,1.92,5.984,1.845
				c-0.275,0.456-0.413,0.943-0.604,0.965c-6.192,0.711-5.754,6.59-8.057,10.329C292.501,259.852,292.548,259.921,292.548,259.921z"
				/>
			<path d="M319.445,325.472c-2.948,0.019-5.918,0.504-8.79-0.544c-0.844-0.308-2.15-0.279-2.022-1.427
				c0.142-1.275,1.599-0.915,2.299-0.771C313.827,323.322,316.783,323.793,319.445,325.472z"/>
			<path d="M322.135,238.854c-2.747-1.974-3.297-4.751-3.831-7.54c-0.216-1.13,0.582-1.473,1.364-1.599
				c0.991-0.16,0.972,0.827,1.087,1.405C321.266,233.687,321.684,236.274,322.135,238.854z"/>
			<path d="M246.57,232.305c1.444,0.166,3.188-1.2,3.221,1.113c0.024,1.67-1.333,2.287-2.935,2.284
				c-1.618-0.004-3.394-0.241-3.357-2.176C243.555,230.519,245.918,233.248,246.57,232.305z"/>
			<path d="M185.139,273.376c1.646,5.264,2.381,10.661,2.338,16.171C185.957,284.264,185.271,278.861,185.139,273.376z"/>
			<path d="M281.374,233.64c0.691,1.538,0.071,4.281,3.496,3.237c0.709-0.216,1.193,2.044,1.468,3.262
				c0.296,1.309-1.038,0.989-1.639,1.307c-1.549,0.818-1.642-0.824-2.007-1.519c-1.02-1.939-2.064-3.95-1.315-6.292
				C281.376,233.633,281.374,233.64,281.374,233.64z"/>
			<path d="M282.844,261.922c2.674,1.499,2.643,4.572,5.197,5.39c0.702,0.225,0.212,0.994-0.119,1.436
				c-0.589,0.789-1.139,0.29-1.757-0.053C283.669,267.31,283.801,264.706,282.844,261.922z"/>
			<path d="M291.576,238.077c2.696-3.369,5.416-2.963,8.059-2.166c2.079,0.627,1.114,2.338,0.904,4.045
				C298.779,235.042,295.508,237.02,291.576,238.077z"/>
			<path d="M204.309,281.881c-1.203,4.575-4.216,7.725-8.218,10.096C199.145,288.859,201.775,285.408,204.309,281.881z"/>
			<path d="M306.246,320.452c-0.568-0.01-1.189,0.125-1.694-0.059c-1.291-0.471-3.798,0.327-3.686-1.396
				c0.126-1.947,2.632-1.15,4.062-1.285c2.659-0.25,1.061,1.752,1.233,2.817C306.162,320.531,306.246,320.452,306.246,320.452z"/>
			<path d="M306.936,227.487c2.569,0.935,2.164,3.274,3.18,4.882C306.397,232.772,306.397,232.772,306.936,227.487z"/>
			<path d="M309.737,237.29c-2.266,0.488-3.848,3.608-6.467,0.891C305.063,236.493,306.933,235.595,309.737,237.29z"/>
			<path d="M173.707,286.177c-1.309-0.667-2.618-1.333-4.03-2.053c0.412-1.358,2.114-2.208,2.775-1.872
				c1.381,0.703,1.2,2.517,1.17,4.007C173.62,286.261,173.707,286.177,173.707,286.177z"/>
			<path d="M259.798,264.605c-2.258,0.284-4.113-0.306-5.263-2.425c3.102-1.656,5.076-1.211,6.093,1.412
				C260.902,264.298,260.522,264.632,259.798,264.605z"/>
		</g>
	</g>
</g>
</a>

<g id="text_1_">
	<g>
		<path d="M278.394,91.721c-0.307,0.048-1.23,0.24-1.493,0.24c-0.834,0-39.902-17.121-39.902-17.793
			c0-1.778,40.254,10.874,41.351,9.529c2.547-3.171,9.657-4.66,13.431-4.66c3.292,0,4.917,0.961,4.917,7.592
			c0,2.594,0,4.852-10.798,11.147c-3.731,2.162-7.461,4.42-10.754,7.254l0.087,0.097l17.075-3.268
			c-1.141,3.556-1.931,6.87-5.838,7.687c-6.847,1.394-11.939,1.633-13.08,0.672c-1.317-1.152-1.931-3.652-1.931-5.381
			c0-4.372,12.509-11.387,15.845-13.405c1.844-1.104,6.189-3.652,6.189-6.294c0-0.961-1.053-1.249-1.668-1.249
			c-3.643,0-13.085,2.05-16.334,3.731l4.483,0.881l2.59,0.336c0.571,0.096,1.668,0.096,1.668,1.009c0,0.672-0.614,0.817-1.097,0.865
			L278.394,91.721z"/>
		<path d="M323.048,86.838c0,9.225-7.638,21.813-18.216,22.63c-4.039,0.336-6.409-4.036-6.409-8.12c0-5.43,3.16-11.387,6.409-15.327
			c3.863-4.66,10.578-8.409,13.431-8.409c1.799,0,3.95,2.307,3.95,3.363c0,0.529-1.054,0.529-1.361,0.865
			C322.828,82.514,323.048,84.917,323.048,86.838z M314.181,98.082c1.931-2.355,5.662-8.072,5.662-11.243
			c0-1.009-0.438-2.835-1.668-2.835c-1.141,0-2.282,1.778-2.721,1.778c-0.352,0-0.439-0.577-0.439-0.865
			c-7.901,4.853-11.368,11.675-11.631,16.624c-0.044,0.913,0.131,3.7,1.361,3.7c1.316,0,4.125-1.826,5.135-2.835L314.181,98.082z"/>
		<path d="M334.461,84.518c-0.176,0.096-1.01,0.481-1.185,0.481c-0.483,0-0.396-0.817-0.351-1.105
			c0.088-1.394,0.965-1.826,2.019-2.498c1.448-0.913,6.409-4.133,7.637-4.133c1.141,0,2.019,2.595,2.019,3.315
			c0,1.394,0,1.249-6.891,14.078c-1.537,2.835-5.136,9.609-5.136,12.829c0,0.577,0.132,1.104,0.132,1.681
			c0,0.433-0.22,0.672-0.614,0.672c-0.22,0-0.703-0.288-0.922-0.432c-1.668-1.009-3.555-1.345-3.555-3.844
			c0-2.402,4.721-11.732,3.073-9.897c-7.898,8.788,6.76-10.954,8.032-12.78l-0.088-0.097L334.461,84.518z"/>
		<path d="M356.47,77.919c1.887-2.162,2.721-1.922,5.31-1.922h10.579c-2.897,5.717-2.94,6.486-6.935,6.438l-7.461-0.096
			c-1.492,1.297-2.765,2.978-3.731,4.9c2.019-0.576,4.038-1.009,6.101-1.009c3.775,0,7.199,2.066,7.199,6.534
			c0,1.97-2.597,3.968-1.581,5.911c6.89,13.165-11.194,4.261-20.894,7.844c-4.035,1.49-4.521-1.058-4.521-4.133
			c0-3.507,6.233-5.333,6.891-5.333c0.263,0,4.084,1.141,4.084,1.574c0,0.432-4.039-0.181-4.302,0.012l-2.678,2.018l0.087,0.096
			c-8.812,1.054,19.71,25.821,19.71-7.844c0-1.297,0.878,0,0,0c-1.756,0-6.804-1.442-8.472-1.058
			c-1.668,0.337-3.028,0.817-3.555,0.817c-1.756,0-5.883-4.696-5.883-6.186c0-1.537,4.61-2.222,5.531-3.279L356.47,77.919z"/>
		<path d="M293.092,133.8c0.307-0.336,1.756-1.874,2.239-1.874c0.438,0,0.658,0.336,0.438,1.105l0.088,0.096
			c4.258-4.036,6.282-13.284,6.282-14.87c0-0.817-0.483-1.153-1.185-0.961c-0.79,0.239-5.054,5.356-14.886,17.945
			c-3.073,3.94-5.311,9.273-5.311,12.925c0,3.411,1.492,5.43,4.653,5.43c5.53,0,15.187-7.88,19.356-11.916
			c0.132,2.45-0.571,3.123-2.238,4.853c-8.56,9.032-15.846,11.915-19.972,11.915c-4.872,0-8.383-3.314-8.383-8.84
			c0-7.063,5.399-14.655,9.92-19.315c3.731-3.892,12.208-16.504,17.432-16.504c2.633,0,4.345,1.537,4.477,4.565
			c0.307,6.486-10.277,23.71-15.807,24.623c-1.273,0.193-2.458-0.768-2.458-2.306c0-1.442,1.185-2.883,2.106-3.748L293.092,133.8z"
			/>
		<path d="M323.858,144.948c-1.975,2.738-3.907,3.891-7.111,3.891c-1.843,2.066-3.994,3.604-6.76,3.604
			c-2.282,0-4.389-2.498-4.565-6.87c-0.088-3.604,1.537-6.006,3.994-8.073c2.371-2.114,5.531-3.411,8.209-3.555
			c0.965-0.048,2.414,0.432,2.414,1.729c0,0.721-0.527,1.01-1.009,1.298c1.316,0.384,1.58,1.393,1.58,2.835
			c0,2.114-0.878,3.795-1.712,5.669c1.931,0.385,3.16-1.441,4.521-2.546L323.858,144.948z M310.47,142.689
			c-0.965,1.058-1.799,2.931-1.799,4.421c0,1.393,0.834,1.826,1.931,1.826c1.448,0,2.37-0.913,3.38-1.923
			c-0.307-0.768-0.527-1.393-0.527-2.21c0-2.498,2.063-5.525,1.887-5.621C313.85,140.143,311.787,141.296,310.47,142.689z"/>
		<path d="M338.165,149.272c-1.01,1.057-2.59,3.026-4.082,3.026c-1.053,0-1.887-0.864-1.931-2.017
			c-0.044-1.394,1.01-3.604,3.863-8.36c0.088-0.097,0.263-0.481,0.263-0.625c0-0.193-0.131-0.336-0.307-0.336
			c-0.439,0-1.405,1.152-1.712,1.489c-2.282,2.643-4.741,5.525-6.803,8.312c-0.483,0.626-1.097,1.346-1.888,1.346
			c-2.107,0-2.722-3.747-2.722-5.478c0.044-4.708,4.697-11.147,7.33-10.762c0.659,0.096,1.975,0.096,1.975,1.105
			c0,0.961-1.229,2.402-1.755,3.075c-0.79,1.009-1.756,1.874-2.414,2.93c-0.483,0.72-1.273,1.49-1.273,2.498
			c0,0.097,0.131,0.433,0.307,0.433c0.22,0,0.746-0.625,0.878-0.769c2.151-2.45,9.964-11.003,12.817-11.003
			c1.185,0,1.799,0.962,1.799,2.211c0,2.113-3.116,6.005-4.082,7.879l0.087,0.097l9.745-8.409c0.438-0.384,1.536-1.345,2.063-1.345
			c0.351,0,0.79,1.153,0.922,1.345c0.307,0.529,0.79,1.249,0.79,1.922c0,0.817-0.878,1.875-1.361,2.45
			c-3.423,4.133-3.687,4.901-3.731,6.006c-0.044,0.577,0.527,1.345,1.054,1.201c0.922-0.24,1.405-0.24,6.803-4.276l0.263,2.258
			c-2.063,1.778-8.384,7.447-10.842,7.447c-1.316,0-2.239-1.393-2.239-2.787c0-2.402,2.151-5.813,3.249-7.783l-0.088-0.096
			L338.165,149.272z"/>
		<path d="M366.869,145.909c-1.975,2.642-5.838,6.966-9.174,6.966c-2.59,0-3.774-3.267-3.774-5.717c0-5.862,5.487-11.58,8.12-11.58
			c0.746,0,1.931,0.288,1.931,1.345c0,2.403-4.346,6.679-6.189,8.073c-0.352,1.97,0.307,3.027,2.326,3.027
			c2.326,0,4.608-2.547,6.365-3.94L366.869,145.909z M362.655,132.551c0-1.97,2.107-3.7,3.819-3.7c0.789,0,1.448,0.625,1.448,1.49
			c0,1.922-1.624,4.276-3.512,4.276C363.358,134.617,362.655,133.705,362.655,132.551z"/>
		<path d="M387.234,142.641l0.351,2.114c-2.326,2.258-6.847,8.167-10.051,8.167c-1.668,0-2.458-1.537-2.458-3.171
			c0-2.882,2.37-6.054,3.774-8.264l-0.088-0.096c-2.546,2.066-4.784,4.565-6.759,7.351c-0.658,0.913-2.282,3.268-3.467,3.268
			c-1.931,0-2.414-3.027-2.458-4.661c-0.132-3.314,2.633-8.167,5.179-10.522c0.571-0.529,0.966-0.577,1.712-0.577
			c2.634,0.097,2.414,0.769,2.414,1.058c0,1.874-5.531,6.727-5.531,7.879c0,0.288,0.22,0.529,0.483,0.529
			c0.307,0,0.702-0.432,0.878-0.672c3.512-4.901,11.588-10.81,12.861-10.81c0.175,0,0.438,0.239,0.702,0.913
			c0.263,0.72,0.527,1.585,0.659,2.594c0,1.874-5.399,5.525-5.399,8.841c0,0.432,0.351,0.865,0.789,0.865
			c1.054,0,2.985-1.682,3.775-2.403L387.234,142.641z"/>
		<path d="M398.601,145.187l-0.088-0.096c-1.58,1.922-6.189,6.295-8.603,6.295c-2.458,0-3.292-3.508-3.292-5.622
			c0-6.294,9.569-11.387,12.948-11.723c0.614-0.048,2.326,0.145,2.326,1.201c0,0.865-0.878,1.537-1.448,1.97l-5.004,2.979
			c-2.765,1.633-6.013,2.979-5.618,6.486c0.045,0.384,0.308,0.481,0.703,0.481c1.229,0.144,3.907-1.01,5.575-2.979l4.697-5.669
			c0.438-0.529,0.965-1.346,1.667-1.346c0.879,0,1.668,1.634,1.668,2.45c0,0.721-0.614,1.826-0.922,2.45l-3.292,6.727l0.088,0.096
			l6.671-5.237l0.22,2.018l-9.262,7.592c-4.608,8.024-8.331,2.234-10.043,2.234c-0.614,0-0.269,4.395-0.269,3.771
			c0-3.459,5.792-5.573,8.206-7.495L398.601,145.187z"/>
		<path d="M297.182,184.509c4.433,1.152,6.496,3.7,6.496,6.053c0,9.561-15.318,11.099-21.639,11.099c-1.712,0-7.067,0-7.067-2.787
			c0-1.009,1.536-3.555,2.239-4.276c0.527-0.48,3.116-1.393,3.774-1.393c0.22,0,0.352,0.048,0.352,0.336
			c0,0.481-0.439,0.72-0.746,0.913c-0.263,0.193-0.483,0.432-0.746,0.72v0.097c15.67,0.625,19.971-4.324,19.971-5.093
			c0-2.45-12.158-4.372-14.265-4.756c-2.195-0.385-4.477-1.153-4.477-4.037c0-1.585,0.702-5.092,1.405-6.389
			c1.361-2.45,9.305-7.015,18.918-7.015c1.844,0,3.687,0.24,5.531,0.672c1.009,0.24,1.141,0.625,1.141,1.585
			c0,3.556-1.097,4.372-3.687,5.478c-1.888,0.768-2.239,1.009-3.95,2.355c-0.308,0.192-0.746,0.48-1.097,0.48
			c-0.439,0-0.703-0.24-0.703-0.72c0-0.096,0.834-1.585,3.205-3.363l-0.088-0.096c-11.324,0.432-16.196,4.901-16.241,6.005
			C285.506,181.049,284.935,181.386,297.182,184.509z"/>
		<path d="M330.275,174.563c1.755-0.529,3.072-0.288,3.95,0.433c0.878,0.768,1.316,2.065,1.36,3.795
			c0.22,9.561-10.227,22.486-20.279,22.39c-3.467-0.048-7.418-2.355-7.813-9.802c-0.526-10.378,14.09-22.15,22.562-23.447
			c2.063-0.336,4.258,3.075,4.258,3.843c0,1.009-1.492,1.442-2.151,1.682c-0.702,0.288-1.316,0.672-1.931,1.057L330.275,174.563z
			 M317.414,185.422c-0.571,0-0.571-0.913-0.614-1.346c-2.458,2.691-4.873,6.534-4.873,10.474c0,1.682,0.659,3.123,2.327,3.123
			c2.457,0,6.276-2.017,8.119-3.747c5.882-5.478,9.218-11.339,9.35-14.846c0.044-1.153-0.571-2.355-1.712-2.355
			c-3.863,0-9.174,3.988-11.237,7.399C318.512,184.509,317.941,185.422,317.414,185.422z"/>
		<path d="M358.32,174.563c1.755-0.529,3.072-0.288,3.95,0.433c0.878,0.768,1.316,2.065,1.36,3.795
			c0.22,9.561-10.227,22.486-20.279,22.39c-3.467-0.048-7.418-2.355-7.813-9.802c-0.526-10.378,14.091-22.15,22.562-23.447
			c2.063-0.336,4.258,3.075,4.258,3.843c0,1.009-1.492,1.442-2.151,1.682c-0.702,0.288-1.316,0.672-1.931,1.057L358.32,174.563z
			 M345.459,185.422c-0.571,0-0.571-0.913-0.614-1.346c-2.458,2.691-4.873,6.534-4.873,10.474c0,1.682,0.659,3.123,2.327,3.123
			c2.457,0,6.276-2.017,8.119-3.747c5.882-5.478,9.218-11.339,9.35-14.846c0.044-1.153-0.571-2.355-1.712-2.355
			c-3.863,0-9.174,3.988-11.237,7.399C346.557,184.509,345.986,185.422,345.459,185.422z"/>
		<path d="M393.652,176.725l-0.088-0.096c-3.687,3.843-7.33,7.735-10.446,11.58c-1.273,1.585-5.926,8.504-8.252,11.915
			c-0.307,0.481-0.834,1.346-1.405,1.346c-0.966,0-3.468-1.923-3.468-3.027c0-0.288,0.307-0.817,0.439-1.058
			c1.799-3.026,10.227-19.122,10.227-21.764c0-0.625-0.131-1.01-0.702-1.01c-1.493,0-6.321,2.595-13.695,7.928
			c-0.351,0.288-0.922,0.625-1.317,0.625c-0.834,0-0.79-1.538-0.79-2.114c0-5.765,7.594-11.964,8.911-11.964
			c0.22,0,0.483,0.145,0.483,0.385c0,0.048-0.22,0.816-2.37,3.075l0.087,0.096c3.116-1.874,8.559-5.237,12.202-5.237
			c1.493,0,2.941,0.913,2.809,2.691c-0.263,3.843-1.975,7.014-7.637,17.921l0.087,0.096c8.428-11.099,12.159-15.087,13.257-15.903
			c1.316-0.962,4.608-3.7,5.618-3.7c0.746,0,3.599,2.258,3.599,4.564c0,3.027-5.618,9.225-9.832,18.354
			c-1.272,2.787-1.36,3.747-1.36,3.94c0,0.865,0.175,1.97,1.141,1.97c1.756,0,37.562-51.55,38.835-53.279
			c0.087,1.152-29.881,46.792-29.881,47.225c0,0.384-0.131,0.625-0.482,1.104c-6.321,8.937-10.93,11.532-12.817,11.532
			c-2.195,0-2.985-2.114-2.985-4.18c0-2.642,1.23-5.669,2.371-7.976L393.652,176.725z"/>
	</g>
</g>
</svg>
